<?xml version="1.0" ?><!DOCTYPE svg  PUBLIC '-//W3C//DTD SVG 1.1//EN'  'http://www.w3.org/Graphics/SVG/1.1/DTD/svg11.dtd'><svg height="512px" style="enable-background:new 0 0 512 512;" version="1.1" viewBox="0 0 512 512" width="512px" xml:space="preserve" xmlns="http://www.w3.org/2000/svg" xmlns:xlink="http://www.w3.org/1999/xlink"><g id="_x31_62_x2C__Follow_x2C__Hash_tag_x2C__Tweet_x2C__Twitter"><g id="XMLID_5048_"><g id="XMLID_6737_"><g><g><g><path d="M421,190.09c0,15.84-12.33,28.94-28.13,29.89h-41.04l-0.01,72.08l37.42,0.011        c0.62-0.04,1.229-0.061,1.84-0.061c16.4,0,29.92,13.32,29.92,29.95c0,15.84-12.33,28.93-28.13,29.89l-41.07-0.01v37.4        c0.04,0.62,0.061,1.229,0.061,1.84c0,16.4-13.32,29.92-29.95,29.92c-15.84,0-28.94-12.33-29.891-28.13v-41.04l-72.079-0.01        l-0.01,37.42c0.04,0.62,0.06,1.229,0.06,1.84c0,16.4-13.32,29.92-29.95,29.92c-15.84,0-28.93-12.33-29.89-28.13l0.01-41.07        h-37.4c-0.619,0.04-1.229,0.061-1.84,0.061c-16.399,0-29.92-13.32-29.92-29.95c0-15.84,12.33-28.94,28.13-29.891h41.04        l0.011-72.08l-37.421-0.01c-0.619,0.04-1.229,0.06-1.84,0.06c-16.399,0-29.92-13.32-29.92-29.95        c0-15.84,12.33-28.93,28.13-29.89l41.07,0.01v-37.4c-0.04-0.62-0.06-1.23-0.06-1.84c0-16.4,13.319-29.92,29.949-29.92        c15.841,0,28.94,12.33,29.891,28.13v41.04l72.079,0.01l0.011-37.42c-0.04-0.62-0.061-1.23-0.061-1.84        c0-16.4,13.32-29.92,29.95-29.92c15.84,0,28.93,12.33,29.89,28.13l-0.01,41.07h37.4c0.62-0.04,1.229-0.06,1.84-0.06        C407.48,160.14,421,173.46,421,190.09z M292.04,292.05l0.01-72.09l-72.089-0.01l-0.01,72.09L292.04,292.05z" style="fill:#C2E3F7;"/></g></g></g><g><g><g><path d="M321.91,431c-21.093,0-38.607-16.485-39.872-37.529c-0.013-0.2-0.019-0.4-0.019-0.601v-31.041        l-52.082-0.008l-0.007,27.12c0.041,0.722,0.06,1.424,0.06,2.139c0,22.012-17.921,39.92-39.95,39.92        c-21.08,0-38.593-16.482-39.872-37.523c-0.013-0.203-0.019-0.406-0.019-0.609l0.008-31.067h-27.099        c-0.719,0.04-1.437,0.061-2.139,0.061c-22.012,0-39.92-17.922-39.92-39.95c0-21.093,16.485-38.607,37.529-39.872        c0.2-0.013,0.4-0.019,0.601-0.019h31.042l0.007-52.082l-27.122-0.007c-0.716,0.04-1.433,0.06-2.137,0.06        c-22.012,0-39.92-17.921-39.92-39.95c0-21.08,16.482-38.593,37.523-39.872c0.202-0.012,0.404-0.019,0.605-0.019        c0.001,0,0.002,0,0.003,0l31.068,0.008v-27.099c-0.04-0.716-0.06-1.434-0.06-2.139c0-22.012,17.921-39.92,39.95-39.92        c21.093,0,38.606,16.485,39.872,37.529c0.012,0.2,0.018,0.4,0.018,0.601v31.042l52.083,0.007l0.008-27.121        c-0.04-0.72-0.061-1.437-0.061-2.138c0-22.012,17.922-39.92,39.95-39.92c21.079,0,38.593,16.482,39.871,37.523        c0.013,0.203,0.019,0.406,0.019,0.609l-0.008,31.068h27.1c0.716-0.04,1.434-0.06,2.139-0.06        c22.012,0,39.92,17.921,39.92,39.95c0,21.093-16.485,38.606-37.529,39.872c-0.2,0.012-0.4,0.018-0.601,0.018h-31.041        l-0.008,52.083l27.12,0.008c0.725-0.041,1.427-0.061,2.139-0.061c22.012,0,39.92,17.922,39.92,39.95        c0,21.079-16.482,38.593-37.523,39.871c-0.202,0.013-0.372-0.008-0.608,0.019l-31.068-0.008v27.098        c0.041,0.725,0.061,1.428,0.061,2.141C361.86,413.092,343.938,431,321.91,431z M302.02,392.54        c0.765,10.373,9.449,18.46,19.891,18.46c11.001,0,19.95-8.937,19.95-19.92c0-0.396-0.014-0.792-0.04-1.195        c-0.014-0.215-0.021-0.43-0.021-0.645v-37.4c0-2.652,1.054-5.196,2.93-7.072c1.875-1.874,4.419-2.928,7.07-2.928        c0.001,0,0.002,0,0.002,0l40.735,0.01c10.376-0.771,18.463-9.456,18.463-19.89c0-11.001-8.937-19.95-19.92-19.95        c-0.396,0-0.792,0.014-1.195,0.04c-0.214,0.014-0.43,0.021-0.645,0.021c0,0-0.002,0-0.003,0l-37.42-0.011        c-5.522-0.002-9.998-4.479-9.997-10.001l0.01-72.08c0.001-5.522,4.478-9.999,10-9.999h40.71        c10.373-0.764,18.46-9.449,18.46-19.89c0-11-8.937-19.95-19.92-19.95c-0.396,0-0.792,0.013-1.195,0.039        c-0.215,0.014-0.43,0.021-0.645,0.021h-37.4c-2.652,0-5.196-1.054-7.072-2.93c-1.875-1.876-2.929-4.42-2.928-7.073        l0.01-40.735C341.078,109.087,332.394,101,321.96,101c-11.001,0-19.95,8.936-19.95,19.92c0,0.396,0.014,0.792,0.04,1.194        c0.014,0.216,0.021,0.432,0.021,0.648l-0.011,37.42c-0.002,5.521-4.479,9.997-10,9.997c-0.001,0-0.001,0-0.001,0l-72.08-0.01        c-5.522-0.001-9.999-4.478-9.999-10v-40.71c-0.764-10.373-9.449-18.46-19.89-18.46c-11,0-19.95,8.936-19.95,19.92        c0,0.396,0.013,0.792,0.039,1.194c0.014,0.215,0.021,0.43,0.021,0.646v37.4c0,2.652-1.054,5.196-2.93,7.072        c-1.875,1.875-4.419,2.928-7.07,2.928c-0.001,0-0.001,0-0.002,0l-40.735-0.01C109.087,170.922,101,179.606,101,190.04        c0,11,8.936,19.95,19.92,19.95c0.396,0,0.793-0.013,1.195-0.039c0.215-0.014,0.401-0.028,0.647-0.021l37.42,0.01        c5.522,0.001,9.999,4.479,9.998,10.001l-0.01,72.079c-0.001,5.522-4.478,9.999-10,9.999h-40.71        c-10.373,0.765-18.46,9.449-18.46,19.891c0,11.001,8.936,19.95,19.92,19.95c0.396,0,0.792-0.014,1.194-0.04        c0.215-0.014,0.43-0.021,0.646-0.021h37.4c2.652,0,5.196,1.054,7.072,2.93s2.929,4.42,2.928,7.073l-0.01,40.734        c0.772,10.376,9.456,18.463,19.89,18.463c11,0,19.95-8.937,19.95-19.92c0-0.396-0.013-0.793-0.039-1.196        c-0.014-0.215-0.021-0.431-0.021-0.646l0.01-37.42c0.001-5.521,4.479-9.997,10-9.997c0,0,0,0,0.001,0l72.079,0.01        c5.522,0.001,9.999,4.478,9.999,10V392.54z" style="fill:#0B93E2;"/></g><g><path d="M292.04,302.05C292.039,302.05,292.039,302.05,292.04,302.05l-72.091-0.01        c-5.523-0.001-9.999-4.479-9.999-10.001l0.01-72.09c0.001-5.522,4.478-9.999,10-9.999c0,0,0,0,0.001,0l72.089,0.01        c5.523,0.001,10,4.479,9.999,10.001l-0.01,72.089C302.039,297.573,297.562,302.05,292.04,302.05z M229.952,282.041        l52.089,0.008l0.008-52.09l-52.09-0.007L229.952,282.041z" style="fill:#0B93E2;"/></g></g></g></g></g></g><g id="Layer_1"/></svg>